<?xml version="1.0" encoding="UTF-8" standalone="no"?>
<!DOCTYPE svg PUBLIC "-//W3C//DTD SVG 1.1//EN" "http://www.w3.org/Graphics/SVG/1.1/DTD/svg11.dtd">
<svg version="1.1" xmlns="http://www.w3.org/2000/svg" xmlns:xlink="http://www.w3.org/1999/xlink" preserveAspectRatio="xMidYMid meet" viewBox="1.9460347401731224 0.9670659763452076 196.89133310000003 199.34133309999996" width="189" height="191.45"><defs><path d="M181.2 4.91C190.33 4.91 194.89 9.53 194.89 18.77C194.89 117.01 194.89 171.59 194.89 182.5C194.89 191.74 190.33 196.36 181.2 196.36C84.23 196.36 30.36 196.36 19.59 196.36C10.46 196.36 5.89 191.74 5.89 182.5C5.89 84.26 5.89 29.69 5.89 18.77C5.89 9.53 10.46 4.91 19.59 4.91C116.55 4.91 170.42 4.91 181.2 4.91Z" id="f2gHxC1rYJ"></path><path d="M100.39 153.91C69.22 153.91 43.95 128.32 43.95 96.74C43.95 65.16 69.22 39.56 100.39 39.56C131.56 39.56 156.84 65.16 156.84 96.74C156.84 128.32 131.56 153.91 100.39 153.91Z" id="e2Ssss9gGc"></path></defs><g><g><use xlink:href="#f2gHxC1rYJ" opacity="1" fill="#000000" fill-opacity="0"></use><g><use xlink:href="#f2gHxC1rYJ" opacity="1" fill-opacity="0" stroke="#007a00" stroke-width="7.89" stroke-opacity="1"></use></g></g><g><use xlink:href="#e2Ssss9gGc" opacity="1" fill="#008000" fill-opacity="1"></use><g><use xlink:href="#e2Ssss9gGc" opacity="1" fill-opacity="0" stroke="#000000" stroke-width="1" stroke-opacity="0"></use></g></g></g></svg>