<?xml version="1.0" encoding="UTF-8" standalone="no"?>
<!DOCTYPE svg PUBLIC "-//W3C//DTD SVG 1.1//EN" "http://www.w3.org/Graphics/SVG/1.1/DTD/svg11.dtd">
<svg version="1.1" xmlns="http://www.w3.org/2000/svg" xmlns:xlink="http://www.w3.org/1999/xlink" preserveAspectRatio="xMidYMid meet" viewBox="0.5007141529407577 -1.0329359660049113 197.89133309999994 200.3813331" width="190" height="192.49"><defs><path d="M180.68 2.91C189.86 2.91 194.45 7.56 194.45 16.85C194.45 115.62 194.45 170.49 194.45 181.47C194.45 190.76 189.86 195.4 180.68 195.4C83.2 195.4 29.04 195.4 18.21 195.4C9.04 195.4 4.45 190.76 4.45 181.47C4.45 82.7 4.45 27.82 4.45 16.85C4.45 7.56 9.04 2.91 18.21 2.91C115.69 2.91 169.85 2.91 180.68 2.91Z" id="c8j5K8DLqm"></path><path d="M99.45 152.72C68.11 152.72 42.7 126.99 42.7 95.24C42.7 63.49 68.11 37.75 99.45 37.75C130.78 37.75 156.19 63.49 156.19 95.24C156.19 126.99 130.78 152.72 99.45 152.72Z" id="bttQBazrW"></path></defs><g><g><use xlink:href="#c8j5K8DLqm" opacity="1" fill="#000000" fill-opacity="0"></use><g><use xlink:href="#c8j5K8DLqm" opacity="1" fill-opacity="0" stroke="#d40000" stroke-width="7.89" stroke-opacity="1"></use></g></g><g><use xlink:href="#bttQBazrW" opacity="1" fill="#d40000" fill-opacity="1"></use><g><use xlink:href="#bttQBazrW" opacity="1" fill-opacity="0" stroke="#000000" stroke-width="1" stroke-opacity="0"></use></g></g></g></svg>